<svg xmlns="http://www.w3.org/2000/svg" enable-background="new 0 0 68 68" viewBox="0 0 68 68" id="checklist"><path fill="#5b52c5" d="M47.62,63.07H5.4c-1.9,0-3.44-1.54-3.44-3.44V7.88c0-1.9,1.54-3.44,3.44-3.44h42.22
			c1.9,0,3.44,1.54,3.44,3.44v51.74C51.07,61.53,49.52,63.07,47.62,63.07z"></path><path fill="#000100" d="M47.62,63.57H5.4c-2.17,0-3.94-1.77-3.94-3.94V7.88c0-2.17,1.77-3.94,3.94-3.94h42.22
			c2.17,0,3.94,1.77,3.94,3.94v51.75C51.57,61.8,49.8,63.57,47.62,63.57z M5.4,4.94c-1.62,0-2.94,1.32-2.94,2.94v51.75
			c0,1.62,1.32,2.94,2.94,2.94h42.22c1.62,0,2.94-1.32,2.94-2.94V7.88c0-1.62-1.32-2.94-2.94-2.94H5.4z"></path><path fill="#8f90fb" d="M54.06,10.88v51.74c0,1.9-1.54,3.45-3.44,3.45H8.4c-1.9,0-3.45-1.55-3.45-3.45V10.88
			c0-1.9,1.55-3.45,3.45-3.45h42.22C52.52,7.43,54.06,8.98,54.06,10.88z"></path><path fill="#000100" d="M50.62,66.57H8.4c-2.17,0-3.94-1.77-3.94-3.94V10.88c0-2.17,1.77-3.94,3.94-3.94h42.22
			c2.17,0,3.94,1.77,3.94,3.94v51.75C54.57,64.8,52.8,66.57,50.62,66.57z M8.4,7.94c-1.62,0-2.94,1.32-2.94,2.94v51.75
			c0,1.62,1.32,2.94,2.94,2.94h42.22c1.62,0,2.94-1.32,2.94-2.94V10.88c0-1.62-1.32-2.94-2.94-2.94H8.4z"></path><path fill="#fff" d="M50.5,13.07v40.2v9.22H10.59c-1.14,0-2.07-0.93-2.07-2.07V13.07c0-1.14,0.93-2.07,2.07-2.07h37.84
			C49.58,11.01,50.5,11.93,50.5,13.07z"></path><path fill="#000100" d="M50.5,62.99H10.59c-1.42,0-2.57-1.15-2.57-2.57V13.07c0-1.42,1.15-2.57,2.57-2.57h37.84
			c1.42,0,2.57,1.15,2.57,2.57v49.42C51,62.77,50.78,62.99,50.5,62.99z M10.59,11.51c-0.86,0-1.57,0.7-1.57,1.57v47.35
			c0,0.86,0.7,1.57,1.57,1.57H50V13.07c0-0.86-0.7-1.57-1.57-1.57H10.59z"></path><path fill="#fbe063" d="M41.47,9.26v1.78c0,0.88-0.72,1.6-1.61,1.6H19.15c-0.89,0-1.6-0.72-1.6-1.6V9.26c0-1.54,1.25-2.8,2.79-2.8
			h5.22V5.89c0-2.18,1.76-3.96,3.95-3.96c1.09,0,2.09,0.46,2.8,1.16c0.71,0.71,1.16,1.71,1.16,2.8v0.57h5.2
			C40.21,6.46,41.47,7.72,41.47,9.26z"></path><path fill="#000100" d="M39.86,13.14H19.15c-1.16,0-2.1-0.94-2.1-2.1V9.26c0-1.82,1.48-3.3,3.29-3.3h4.72V5.89
			c0-2.46,2-4.46,4.45-4.46c1.16,0,2.31,0.48,3.15,1.3c0.83,0.83,1.31,1.98,1.31,3.16v0.07h4.7c1.82,0,3.3,1.48,3.3,3.3v1.78
			C41.97,12.2,41.03,13.14,39.86,13.14z M20.34,6.96c-1.26,0-2.29,1.03-2.29,2.3v1.78c0,0.61,0.49,1.1,1.1,1.1h20.71
			c0.61,0,1.11-0.49,1.11-1.1V9.26c0-1.27-1.03-2.3-2.3-2.3h-5.2c-0.28,0-0.5-0.22-0.5-0.5V5.89c0-0.91-0.37-1.8-1.01-2.45
			c-0.65-0.64-1.54-1.01-2.45-1.01c-1.9,0-3.45,1.55-3.45,3.46v0.57c0,0.28-0.22,0.5-0.5,0.5H20.34z"></path><path fill="#fff" d="M29.52,4.62c0.74,0,1.33,0.6,1.33,1.33c0,0.74-0.6,1.33-1.33,1.33c-0.75,0-1.35-0.6-1.35-1.33
			C28.17,5.22,28.77,4.62,29.52,4.62z"></path><path fill="#000100" d="M29.52,7.79c-1.02,0-1.85-0.82-1.85-1.83s0.83-1.83,1.85-1.83c1.01,0,1.83,0.82,1.83,1.83
			S30.53,7.79,29.52,7.79z M29.52,5.12c-0.47,0-0.85,0.37-0.85,0.83s0.38,0.83,0.85,0.83c0.46,0,0.83-0.37,0.83-0.83
			S29.98,5.12,29.52,5.12z"></path><path fill="#495e66" d="M42.63,18.19c0,0.6-0.25,1.15-0.64,1.55c-0.4,0.39-0.95,0.64-1.55,0.64H18.57c-1.21,0-2.19-0.98-2.19-2.19
			c0-0.6,0.24-1.15,0.64-1.55c0.4-0.39,0.94-0.64,1.55-0.64h21.87C41.65,16,42.63,16.98,42.63,18.19z"></path><path fill="#000100" d="M40.44,20.88H18.57c-1.48,0-2.69-1.21-2.69-2.69c0-0.72,0.28-1.4,0.79-1.9c0.52-0.51,1.2-0.79,1.9-0.79h21.87
			c1.48,0,2.69,1.21,2.69,2.69c0,0.71-0.28,1.38-0.78,1.9C41.83,20.6,41.15,20.88,40.44,20.88z M18.57,16.5
			c-0.44,0-0.87,0.18-1.2,0.5c-0.31,0.31-0.49,0.74-0.49,1.19c0,0.93,0.76,1.69,1.69,1.69h21.87c0.44,0,0.88-0.18,1.2-0.5
			c0.31-0.32,0.49-0.75,0.49-1.19c0-0.93-0.76-1.69-1.69-1.69H18.57z"></path><path fill="#54e28e" d="M21.6,26.56v4.9c0,0.88-0.71,1.59-1.59,1.59h-4.9c-0.87,0-1.58-0.71-1.58-1.59v-4.9
				c0-0.88,0.71-1.59,1.58-1.59h4.9C20.89,24.97,21.6,25.68,21.6,26.56z"></path><path fill="#000100" d="M20.01,33.55h-4.9c-1.15,0-2.08-0.94-2.08-2.09v-4.9c0-1.15,0.93-2.09,2.08-2.09h4.9
				c1.15,0,2.09,0.94,2.09,2.09v4.9C22.1,32.61,21.16,33.55,20.01,33.55z M15.11,25.47c-0.6,0-1.08,0.49-1.08,1.09v4.9
				c0,0.6,0.48,1.09,1.08,1.09h4.9c0.6,0,1.09-0.49,1.09-1.09v-4.9c0-0.6-0.49-1.09-1.09-1.09H15.11z"></path><g><path fill="#000100" d="M45.5 25.84H33.84c-.28 0-.5-.22-.5-.5s.22-.5.5-.5H45.5c.28 0 .5.22.5.5S45.78 25.84 45.5 25.84zM31.26 25.84h-3.58c-.28 0-.5-.22-.5-.5s.22-.5.5-.5h3.58c.28 0 .5.22.5.5S31.53 25.84 31.26 25.84zM45.5 29.51h-2.87c-.28 0-.5-.22-.5-.5s.22-.5.5-.5h2.87c.28 0 .5.22.5.5S45.78 29.51 45.5 29.51zM40.01 29.51H27.67c-.28 0-.5-.22-.5-.5s.22-.5.5-.5h12.33c.28 0 .5.22.5.5S40.28 29.51 40.01 29.51zM38.92 33.17H27.67c-.28 0-.5-.22-.5-.5s.22-.5.5-.5h11.25c.28 0 .5.22.5.5S39.2 33.17 38.92 33.17z"></path></g><g><path fill="#54e28e" d="M21.6,38.34v4.9c0,0.88-0.71,1.59-1.59,1.59h-4.9c-0.87,0-1.58-0.71-1.58-1.59v-4.9
				c0-0.88,0.71-1.59,1.58-1.59h4.9C20.89,36.75,21.6,37.46,21.6,38.34z"></path><path fill="#000100" d="M20.01,45.33h-4.9c-1.15,0-2.08-0.94-2.08-2.09v-4.9c0-1.15,0.93-2.09,2.08-2.09h4.9
				c1.15,0,2.09,0.94,2.09,2.09v4.9C22.1,44.4,21.16,45.33,20.01,45.33z M15.11,37.25c-0.6,0-1.08,0.49-1.08,1.09v4.9
				c0,0.6,0.48,1.09,1.08,1.09h4.9c0.6,0,1.09-0.49,1.09-1.09v-4.9c0-0.6-0.49-1.09-1.09-1.09H15.11z"></path><g><path fill="#000100" d="M45.5 37.63H33.84c-.28 0-.5-.22-.5-.5s.22-.5.5-.5H45.5c.28 0 .5.22.5.5S45.78 37.63 45.5 37.63zM31.26 37.63h-3.58c-.28 0-.5-.22-.5-.5s.22-.5.5-.5h3.58c.28 0 .5.22.5.5S31.53 37.63 31.26 37.63zM45.5 41.29h-2.87c-.28 0-.5-.22-.5-.5s.22-.5.5-.5h2.87c.28 0 .5.22.5.5S45.78 41.29 45.5 41.29zM40.01 41.29H27.67c-.28 0-.5-.22-.5-.5s.22-.5.5-.5h12.33c.28 0 .5.22.5.5S40.28 41.29 40.01 41.29zM38.92 44.96H27.67c-.28 0-.5-.22-.5-.5s.22-.5.5-.5h11.25c.28 0 .5.22.5.5S39.2 44.96 38.92 44.96z"></path></g></g><g><path fill="#54e28e" d="M21.6,50.13v4.9c0,0.88-0.71,1.59-1.59,1.59h-4.9c-0.87,0-1.58-0.71-1.58-1.59v-4.9
				c0-0.88,0.71-1.59,1.58-1.59h4.9C20.89,48.54,21.6,49.25,21.6,50.13z"></path><path fill="#000100" d="M20.01,57.12h-4.9c-1.15,0-2.08-0.94-2.08-2.09v-4.9c0-1.15,0.93-2.09,2.08-2.09h4.9
				c1.15,0,2.09,0.94,2.09,2.09v4.9C22.1,56.18,21.16,57.12,20.01,57.12z M15.11,49.04c-0.6,0-1.08,0.49-1.08,1.09v4.9
				c0,0.6,0.48,1.09,1.08,1.09h4.9c0.6,0,1.09-0.49,1.09-1.09v-4.9c0-0.6-0.49-1.09-1.09-1.09H15.11z"></path><g><path fill="#000100" d="M39.67 49.41h-5.83c-.28 0-.5-.22-.5-.5s.22-.5.5-.5h5.83c.28 0 .5.22.5.5S39.95 49.41 39.67 49.41zM31.26 49.41h-3.58c-.28 0-.5-.22-.5-.5s.22-.5.5-.5h3.58c.28 0 .5.22.5.5S31.53 49.41 31.26 49.41zM37.51 53.08h-9.83c-.28 0-.5-.22-.5-.5s.22-.5.5-.5h9.83c.28 0 .5.22.5.5S37.78 53.08 37.51 53.08zM34.63 56.74h-6.96c-.28 0-.5-.22-.5-.5s.22-.5.5-.5h6.96c.28 0 .5.22.5.5S34.91 56.74 34.63 56.74z"></path></g></g><g><path fill="#000100" d="M16.94,30.51L16.94,30.51c-0.13,0-0.26-0.05-0.35-0.15l-0.82-0.82c-0.2-0.2-0.2-0.51,0-0.71
			c0.2-0.2,0.51-0.2,0.71,0l0.47,0.47l1.66-1.66c0.2-0.2,0.51-0.2,0.71,0s0.2,0.51,0,0.71l-2.02,2.02
			C17.2,30.46,17.07,30.51,16.94,30.51z"></path></g><g><path fill="#000100" d="M16.94,42.3L16.94,42.3c-0.13,0-0.26-0.05-0.35-0.15l-0.82-0.82c-0.2-0.2-0.2-0.51,0-0.71
			c0.2-0.2,0.51-0.2,0.71,0l0.47,0.47l1.66-1.66c0.2-0.2,0.51-0.2,0.71,0s0.2,0.51,0,0.71l-2.02,2.02
			C17.2,42.25,17.07,42.3,16.94,42.3z"></path></g><g><path fill="#000100" d="M16.94,54.09L16.94,54.09c-0.13,0-0.26-0.05-0.35-0.15l-0.82-0.82c-0.2-0.2-0.2-0.51,0-0.71
			c0.2-0.19,0.51-0.19,0.71,0l0.47,0.47l1.66-1.66c0.2-0.2,0.51-0.2,0.71,0s0.2,0.51,0,0.71l-2.02,2.02
			C17.2,54.03,17.07,54.09,16.94,54.09z"></path></g><g><path fill="#54e28e" d="M65.72,26.3l-13.2,22.64l-7.81-4.55l13.2-22.64c0.67-1.14,2.13-1.53,3.27-0.87l3.67,2.14
					C65.99,23.69,66.38,25.16,65.72,26.3z"></path><path fill="#000100" d="M52.51,49.45c-0.09,0-0.17-0.02-0.25-0.07l-7.81-4.55c-0.11-0.07-0.2-0.18-0.23-0.3
					c-0.03-0.13-0.02-0.26,0.05-0.38l13.2-22.64c0.81-1.38,2.58-1.85,3.96-1.05l3.67,2.14c1.38,0.81,1.85,2.58,1.04,3.96l0,0
					L52.94,49.2C52.85,49.36,52.68,49.45,52.51,49.45z M45.39,44.22l6.94,4.05l12.95-22.21c0.53-0.9,0.22-2.07-0.68-2.6l-3.67-2.14
					c-0.9-0.52-2.06-0.22-2.59,0.69L45.39,44.22z M65.72,26.3L65.72,26.3L65.72,26.3z"></path><rect width="2.36" height="9.04" x="58.4" y="23.34" fill="#efefed" transform="rotate(-59.755 59.58 27.853)"></rect><path fill="#000100" d="M62.89,31.65c-0.09,0-0.17-0.02-0.25-0.07l-7.81-4.55c-0.11-0.07-0.2-0.18-0.23-0.3
					c-0.03-0.13-0.02-0.26,0.05-0.38l1.19-2.04c0.14-0.24,0.45-0.32,0.68-0.18l7.81,4.55c0.24,0.14,0.32,0.45,0.18,0.68l-1.19,2.04
					c-0.07,0.11-0.18,0.2-0.3,0.23C62.98,31.65,62.93,31.65,62.89,31.65z M55.77,26.42l6.94,4.05l0.69-1.18l-6.94-4.05L55.77,26.42z
					"></path><path fill="#495e66" d="M64.08,29.11l1.64-2.8c0.67-1.14,0.28-2.61-0.86-3.28l-3.67-2.14c-1.14-0.67-2.61-0.27-3.27,0.87l-1.64,2.8
					L64.08,29.11z"></path><path fill="#000100" d="M64.08,29.61c-0.09,0-0.17-0.02-0.25-0.07l-7.81-4.55c-0.24-0.14-0.32-0.45-0.18-0.68l1.63-2.8
					c0.81-1.38,2.58-1.85,3.96-1.05l3.67,2.14c1.38,0.81,1.85,2.58,1.04,3.96l-1.64,2.8C64.42,29.52,64.25,29.61,64.08,29.61z
					 M56.96,24.38l6.94,4.05l1.38-2.37c0.53-0.9,0.22-2.07-0.68-2.6l-3.67-2.14c-0.9-0.52-2.06-0.22-2.59,0.69L56.96,24.38z"></path><g><path fill="#fbe063" d="M52.51,48.95l-6.36,3.6c-0.65,0.36-1.44-0.1-1.45-0.84l0-7.3L52.51,48.95z"></path><path fill="#000100" d="M45.68,53.17c-0.26,0-0.51-0.07-0.74-0.2c-0.45-0.27-0.73-0.74-0.73-1.27l0-7.31
						c0-0.18,0.1-0.34,0.25-0.43c0.16-0.09,0.35-0.09,0.5,0l7.81,4.55c0.15,0.09,0.25,0.26,0.25,0.44c0,0.18-0.1,0.34-0.25,0.43
						l-6.36,3.6C46.17,53.11,45.92,53.17,45.68,53.17z M45.2,45.27l0,6.43c0,0.24,0.16,0.36,0.23,0.41s0.25,0.12,0.47,0l5.6-3.17
						L45.2,45.27z"></path></g><g><path fill="#000100" d="M44.71,49.31l0,2.39c0,0.74,0.8,1.21,1.45,0.84l2.08-1.18L44.71,49.31z"></path><path fill="#000100" d="M45.68,53.17c-0.25,0-0.51-0.07-0.74-0.2c-0.45-0.27-0.73-0.74-0.73-1.27l0-2.39c0-0.18,0.1-0.34,0.25-0.43
					c0.16-0.09,0.35-0.09,0.5,0l3.53,2.06c0.15,0.09,0.25,0.26,0.25,0.44c0,0.18-0.1,0.34-0.25,0.43l-2.08,1.18
					C46.17,53.11,45.92,53.17,45.68,53.17z M45.21,50.18l0,1.52c0,0.24,0.16,0.36,0.23,0.41s0.25,0.12,0.47,0l1.32-0.75L45.21,50.18
					z"></path></g><g><line x1="58.99" x2="53.3" y1="28.88" y2="38.63" fill="#8f90fb"></line><path fill="#000100" d="M53.3,39.13c-0.09,0-0.17-0.02-0.25-0.07c-0.24-0.14-0.32-0.45-0.18-0.68l5.69-9.76
					c0.14-0.24,0.45-0.32,0.68-0.18c0.24,0.14,0.32,0.45,0.18,0.68l-5.69,9.76C53.64,39.04,53.47,39.13,53.3,39.13z"></path></g></g></svg>